<?xml version="1.0" encoding="utf-8"?>
<!-- Generator: Adobe Illustrator 21.0.0, SVG Export Plug-In . SVG Version: 6.00 Build 0)  -->
<svg version="1.1" id="Layer_1" xmlns="http://www.w3.org/2000/svg" xmlns:xlink="http://www.w3.org/1999/xlink" x="0px" y="0px"
	 viewBox="0 0 6803 3253" style="enable-background:new 0 0 6803 3253;" xml:space="preserve">
<style type="text/css">
	.st0{fill:#EE287F;}
	.st1{fill:#32C8F0;}
</style>
<g transform="translate(0.000000,3253.000000) scale(0.100000,-0.100000)">
	<g id="XMLID_1_">
		<g>
			<path class="st0" d="M33439.4,19619.3l2-599.3h-1809.4h-1809.4v2767.3v2767.3H31576h1753.3l-2-598.3l-3.1-599.3l-1041.8-3.1
				l-1042.8-2v-443.4v-443.4h983.7h983.7v-596.3v-596.3h-983.7h-983.7v-524.9v-524.9l1098.9-2l1097.8-3.1L33439.4,19619.3z
				 M33227.4,19234v387.3v387.3h-1100.9h-1100.9l2,736.9l3.1,735.9l981.6,3.1l980.6,2v382.2v382.2h-983.7h-983.7v657.4v657.4h1044.8
				h1044.8v387.3v387.3H31576h-1539.2v-2553.3V19234h1595.3H33227.4z"/>
			<polygon class="st0" points="33227.4,19621.3 33227.4,19234 31632.1,19234 30036.8,19234 30036.8,21787.2 30036.8,24340.5 
				31576,24340.5 33115.2,24340.5 33115.2,23953.2 33115.2,23565.9 32070.4,23565.9 31025.6,23565.9 31025.6,22908.4 31025.6,22251 
				32009.2,22251 32992.9,22251 32992.9,21868.8 32992.9,21486.6 32012.3,21484.5 31030.7,21481.5 31027.6,20745.5 31025.6,20008.6 
				32126.5,20008.6 33227.4,20008.6 			"/>
			<path class="st0" d="M29196.8,21017.7c16.3-71.3,19.4-130.5,19.4-326.2c-1-209-4.1-252.8-23.4-339.4
				c-72.4-325.1-205.9-575.9-425.1-798.1c-344.5-348.6-828.7-547.3-1475-606.5c-190.6-17.3-645.3-6.1-838.9,20.4
				c-386.3,53-745.2,151.9-988.8,272.1c-61.2,29.6-118.2,59.1-125.4,63.2c-10.2,7.1,20.4,144.7,136.6,611.6l148.8,602.4l128.4-64.2
				c314-157,672.8-265,1004.1-300.7c150.9-17.3,424.1-14.3,530.1,4.1c232.4,40.8,386.3,135.6,453.6,278.3
				c24.5,52,27.5,70.3,27.5,170.2c0,99.9-3.1,118.2-26.5,168.2c-57.1,120.3-172.3,212-409.8,326.2c-79.5,37.7-209,92.8-287.5,122.3
				c-399.6,146.8-556.6,216.1-759.4,336.4c-413.9,244.6-673.8,540.2-794.1,902.1c-61.2,185.5-75.4,294.6-69.3,522.9
				c6.1,212,17.3,277.2,79.5,465.8c154.9,467.8,531.1,830.7,1064.2,1029.5c140.7,53,382.3,112.1,535.2,131.5
				c70.3,9.2,141.7,18.3,158,20.4c78.5,11.2,667.7-3.1,779.8-18.3c329.3-45.9,598.4-118.2,875.6-235.5
				c100.9-42.8,114.2-51,111.1-70.3c-7.1-32.6-317-1151.8-320.1-1156.9c-2-2-66.3,24.5-143.7,60.1
				c-253.8,115.2-515.8,188.6-775.7,215.1c-169.2,17.3-475,7.1-571.9-19.4c-225.3-62.2-354.7-187.5-365.9-354.7
				c-12.2-185.5,90.7-301.7,400.6-452.6c78.5-38.7,221.2-99.9,316-137.6c95.8-36.7,233.4-90.7,305.8-119.3
				c401.6-155.9,693.2-336.4,922.5-567.7C29008.3,21555.9,29129.6,21330.6,29196.8,21017.7z M28978.7,20365.4
				c25.5,112.1,36.7,417.9,19.4,541.2c-28.5,196.7-87.7,358.8-185.5,508.6c-214.1,327.2-537.2,543.3-1191.6,796.1
				c-478.1,184.5-664.6,279.3-801.2,408.7c-124.4,119.3-174.3,218.1-184.5,375.1c-21.4,319,223.2,566.7,627.9,636
				c113.1,19.4,397.5,22.4,549.4,5.1c218.1-23.4,483.2-87.7,670.7-162.1c42.8-17.3,79.5-29.6,81.5-27.5
				c6.1,6.1,207.9,732.9,207.9,748.1c0,6.1-35.7,25.5-79.5,41.8c-178.4,68.3-435.3,129.4-669.7,161c-156,20.4-535.2,32.6-688.1,22.4
				c-341.5-23.4-625.9-95.8-891.9-228.3c-302.7-149.8-536.2-374.1-670.7-643.2c-52-100.9-75.4-165.1-105-283.4
				c-35.7-135.6-45.9-418.9-20.4-561.6c93.8-543.3,532.1-942.8,1361.9-1242.5c443.4-160,657.5-275.2,808.3-432.2
				c120.3-125.4,170.2-250.7,170.2-425c0-178.4-60.1-318-188.6-441.3c-117.2-111.1-294.6-189.6-504.6-221.2
				c-113.1-16.3-413.9-19.4-540.3-4.1c-303.8,36.7-567.8,102.9-839.9,210c-77.5,31.6-142.7,54-145.8,51
				c-3.1-3.1-46.9-172.3-96.8-375.1c-49.9-203.9-92.8-377.1-95.8-387.3c-4.1-13.2,16.3-24.5,99.9-57.1
				c272.2-106,571.9-175.3,913.3-211c187.6-20.4,610.6-19.4,776.7,1c562.7,68.3,967.4,244.6,1259.9,546.3
				C28803.4,19897.5,28919.6,20112.6,28978.7,20365.4z"/>
			<path class="st0" d="M28998.1,20906.6c17.3-123.3,6.1-429.1-19.4-541.2c-59.1-252.8-175.3-467.8-352.7-650.3
				c-292.6-301.7-697.2-478-1259.9-546.3c-166.2-20.4-589.2-21.4-776.7-1c-341.5,35.7-641.2,105-913.3,211
				c-83.6,32.6-104,43.8-99.9,57.1c3.1,10.2,45.9,183.5,95.8,387.3c49.9,202.8,93.8,372,96.8,375.1c3.1,3.1,68.3-19.4,145.8-51
				c272.2-107,536.2-173.3,839.9-210c126.4-15.3,427.1-12.2,540.3,4.1c210,31.6,387.4,110.1,504.6,221.2
				c128.4,123.3,188.6,263,188.6,441.3c0,174.3-49.9,299.7-170.2,425c-150.9,157-364.9,272.1-808.3,432.2
				c-829.8,299.7-1268.1,699.2-1361.9,1242.5c-25.5,142.7-15.3,426.1,20.4,561.6c29.6,118.2,53,182.4,105,283.4
				c134.6,269.1,368,493.3,670.7,643.2c266.1,132.5,550.5,204.9,891.9,228.3c152.9,10.2,532.1-2,688.1-22.4
				c234.5-31.6,491.3-92.8,669.7-161c43.8-16.3,79.5-35.7,79.5-41.8c0-15.3-201.8-742-207.9-748.1c-2-2-38.7,10.2-81.5,27.5
				c-187.6,74.4-452.6,138.6-670.7,162.1c-151.9,17.3-436.3,14.3-549.4-5.1c-404.7-69.3-649.3-317-627.9-636
				c10.2-157,60.1-255.8,184.5-375.1c136.6-129.4,323.1-224.2,801.2-408.7c654.4-252.8,977.6-468.9,1191.6-796.1
				C28910.4,21265.4,28969.5,21103.3,28998.1,20906.6z"/>
			<path class="st0" d="M24787.1,21745.5v-2725.5h-703.4h-703.4v1045.8v1045.8l-221.2-5.1c-237.5-5.1-305.8-16.3-405.7-63.2
				c-109.1-52-187.6-135.6-256.9-275.2c-58.1-115.2-82.6-196.7-185.5-611.6c-145.8-581-230.4-861.3-314-1036.6l-46.9-99.9h-738h-737
				l49.9,99.9c85.6,170.2,119.3,282.3,336.4,1094.7c158,588.1,193.7,701.3,286.4,889.8c104,214,222.2,364.9,381.2,490.3l39.8,31.6
				l-80.5,48.9c-352.7,213-598.4,540.2-699.3,932.6c-27.5,104-31.6,138.6-35.7,310.9c-4.1,148.8-1,220.2,11.2,306.8
				c60.1,406.7,232.4,712.5,529,942.8c301.7,234.4,717.6,368,1296.6,415.9c145.8,12.2,1109.1,6.1,1294.6-8.2
				c360.9-28.5,781.8-75.4,879.7-99.9l22.4-5.1V21745.5z M24573,19234v2526.8v2526.8l-22.4,5.1c-76.5,19.4-533.1,61.2-854.2,78.5
				c-220.2,12.2-946,11.2-1100.9-1c-594.3-47.9-1015.3-201.8-1283.4-468.9c-236.5-236.5-346.6-531-348.6-932.6
				c0-158,13.3-258.9,53-388.3c114.2-370,437.3-699.2,822.6-838.9l63.2-23.4v-82.6v-82.6l-99.9-46.9
				c-227.3-108-373.1-276.2-503.6-577.9c-63.2-146.8-89.7-237.5-246.7-823.6c-70.3-264-152.9-565.7-184.5-670.7
				c-30.6-105-56.1-192.6-56.1-194.7c0-3.1,226.3-5.1,503.6-5.1h504.6l30.6,81.5c57.1,146.8,133.5,414.8,245.7,861.3
				c61.2,241.6,125.4,480.1,142.7,530c134.6,380.2,348.6,561.6,713.5,606.5c46.9,5.1,211,10.2,363.9,10.2h278.3v-1044.8V19234h489.3
				H24573z"/>
			<path class="st0" d="M24573,21760.7V19234h-489.3h-489.3v1044.8v1044.8h-278.3c-152.9,0-317-5.1-363.9-10.2
				c-364.9-44.8-579-226.3-713.5-606.5c-17.3-49.9-81.5-288.5-142.7-530c-112.1-446.4-188.6-714.5-245.7-861.3l-30.6-81.5h-504.6
				c-277.3,0-503.6,2-503.6,5.1c0,2,25.5,89.7,56.1,194.7c31.6,105,114.2,406.7,184.5,670.7c157,586.1,183.5,676.8,246.7,823.6
				c130.5,301.7,276.2,469.9,503.6,577.9l99.9,46.9v82.6v82.6l-63.2,23.4c-385.3,139.6-708.5,468.9-822.6,838.9
				c-39.8,129.4-53,230.4-53,388.3c2,401.6,112.1,696.2,348.6,932.6c268.1,267,689.1,421,1283.4,468.9
				c154.9,12.2,880.7,13.2,1100.9,1c321.1-17.3,777.8-59.1,854.2-78.5l22.4-5.1V21760.7z M23592.4,22813.7l2,832.7l-53,10.2
				c-201.8,40.8-496.4,59.1-711.5,44.8c-433.2-28.5-736-223.2-839.9-542.3c-39.8-119.3-49.9-202.8-43.8-346.6
				c13.2-324.1,167.2-559.6,460.7-707.4c203.9-101.9,426.1-132.5,917.4-127.4l265,3.1L23592.4,22813.7z"/>
			<path class="st0" d="M23594.5,23646.4l-2-832.7l-3.1-832.7l-265-3.1c-491.3-5.1-713.5,25.5-917.4,127.4
				c-293.6,147.8-447.5,383.2-460.7,707.4c-6.1,143.7,4.1,227.3,43.8,346.6c104,319,406.7,513.7,839.9,542.3
				c215.1,14.3,509.7-4.1,711.5-44.8L23594.5,23646.4z M23380.4,22186.8l-2,641.1l-3.1,641.1l-56.1,6.1
				c-107,12.2-453.6,18.3-534.1,9.2c-340.5-39.8-558.6-201.8-612.6-455.6c-19.4-90.7-19.4-255.8,0-338.4
				c44.9-188.6,182.5-337.4,388.4-419.9c137.6-55,243.6-70.3,547.4-77.5L23380.4,22186.8z"/>
			<path class="st0" d="M20136.8,19619.3l2-599.3h-1809.4h-1809.4v2767.3v2767.3h1753.3h1753.3l-2-598.3l-3.1-599.3l-1041.8-3.1
				l-1042.8-2v-443.4v-443.4h983.7h983.7v-596.3v-596.3h-983.7H17937v-524.9v-524.9l1098.9-2l1097.8-3.1L20136.8,19619.3z
				 M19924.8,19234v387.3v387.3h-1100.9H17723l2,736.9l3.1,735.9l981.6,3.1l980.6,2v382.2v382.2h-983.7H17723v657.4v657.4h1044.8
				h1044.8v387.3v387.3h-1539.2h-1539.2v-2553.3V19234h1595.3H19924.8z"/>
			<polygon class="st0" points="19924.8,19621.3 19924.8,19234 18329.5,19234 16734.2,19234 16734.2,21787.2 16734.2,24340.5 
				18273.4,24340.5 19812.6,24340.5 19812.6,23953.2 19812.6,23565.9 18767.8,23565.9 17723,23565.9 17723,22908.4 17723,22251 
				18706.6,22251 19690.3,22251 19690.3,21868.8 19690.3,21486.6 18709.7,21484.5 17728.1,21481.5 17725,20745.5 17723,20008.6 
				18823.9,20008.6 19924.8,20008.6 			"/>
			<path class="st0" d="M15442.7,24554.6c412.8,0,751.3-3.1,751.3-7.1c0-5.1-417.9-1249.6-929.7-2767.3l-929.7-2760.2h-782.9h-781.8
				l-76.5,237.5c-54,165.1-1622.8,5056.6-1694.2,5279.8c-5.1,16.3,35.7,17.3,768.6,17.3h773.7l339.4-1179.3
				c467.9-1623.7,487.3-1694,610.6-2187.4l110.1-435.2l28.5,124.4c34.7,153.9,161.1,638.1,229.4,882.7
				c27.5,98.9,226.3,768.5,440.4,1487.1l390.4,1307.7H15442.7z M15898.3,24332.4c0,4.1-235.5,8.2-523.9,8.2h-523.9l-16.3-47.9
				c-27.5-86.6-686-2295.4-739-2479.9c-125.4-439.3-248.7-927.5-347.6-1376c-28.5-131.5-56.1-243.6-60.1-247.7
				c-4.1-4.1-48.9-7.1-98.9-5.1l-90.7,3.1l-22.4,112.1c-98.9,483.1-217.1,976.5-350.7,1452.5c-71.4,257.9-713.5,2492.1-733.9,2556.3
				l-11.2,32.6h-545.4h-545.4l6.1-23.4c3.1-12.2,342.5-1073.3,754.3-2356.6c410.8-1284.3,776.7-2422.8,811.4-2529.8l62.2-196.7h631
				h630l38.7,115.2c20.4,62.2,406.7,1207.8,856.3,2544.1C15529.3,23230.5,15898.3,24328.3,15898.3,24332.4z"/>
			<path class="st0" d="M15374.4,24340.5c288.5,0,523.9-4.1,523.9-8.2c0-4.1-369-1101.8-819.6-2439.1
				c-449.5-1336.3-835.9-2481.9-856.3-2544.1l-38.7-115.2h-630h-631l-62.2,196.7c-34.7,107-400.6,1245.5-811.4,2529.8
				c-411.8,1283.3-751.3,2344.3-754.3,2356.6l-6.1,23.4h545.4h545.4l11.2-32.6c20.4-64.2,662.6-2298.5,733.9-2556.3
				c133.5-476,251.8-969.3,350.7-1452.5l22.4-112.1l90.7-3.1c49.9-2,94.8,1,98.9,5.1c4.1,4.1,31.6,116.2,60.1,247.7
				c98.9,448.5,222.2,936.7,347.6,1376c53,184.5,711.5,2393.2,739,2479.9l16.3,47.9H15374.4z"/>
			<path class="st0" d="M10819.9,19619.3l2-599.3H9012.6H7203.2v2767.3v2767.3h1753.3h1753.3l-2-598.3l-3.1-599.3l-1041.8-3.1
				l-1042.8-2v-443.4v-443.4h983.7h983.7v-596.3v-596.3h-983.7h-983.7v-524.9v-524.9h28.5c15.3,0,509.7-1,1097.8-3.1l1070.3-2
				L10819.9,19619.3z M10607.9,19234v387.3v387.3H9507H8406.1l2,736.9l3.1,735.9l981.6,3.1l980.6,2v382.2v382.2h-983.7h-983.7v657.4
				v657.4h1044.8h1044.8v387.3v387.3H8956.5H7417.3v-2553.3V19234h1595.3H10607.9z"/>
			<polygon class="st0" points="10607.9,19621.3 10607.9,19234 9012.6,19234 7417.3,19234 7417.3,21787.2 7417.3,24340.5 
				8956.5,24340.5 10495.7,24340.5 10495.7,23953.2 10495.7,23565.9 9450.9,23565.9 8406.1,23565.9 8406.1,22908.4 8406.1,22251 
				9389.7,22251 10373.4,22251 10373.4,21868.8 10373.4,21486.6 9392.8,21484.5 8411.1,21481.5 8408.1,20745.5 8406.1,20008.6 
				9507,20008.6 10607.9,20008.6 			"/>
			<path class="st0" d="M6387.7,21745.5v-2725.5h-703.4H4981v1044.8v1044.8h-167.2c-268.1,0-400.6-26.5-515.8-104
				c-103-68.3-188.6-193.7-248.7-363.9c-15.3-41.8-77.5-274.2-138.6-514.7c-151.9-603.4-247.7-913.3-325.2-1049.8l-28.5-52l-736-3.1
				l-735-2l44.9,88.7c78.5,157,132.5,330.2,301.7,966.3c140.7,530,175.3,653.4,224.3,795c51,148.8,132.5,318,204.9,428.1
				c61.2,91.7,191.6,232.4,267.1,288.5c44.9,32.6,48.9,37.7,32.6,47.9c-397.5,234.4-660.5,565.7-759.4,958.1
				c-95.8,377.1-44.9,812.4,134.6,1146.7c125.4,234.4,332.3,435.2,589.2,573.8c266.1,142.7,640.2,237.5,1080.5,271.1
				c140.7,11.2,909.3,11.2,1116.2,0c380.2-19.4,852.2-68.3,1037.7-107l27.5-6.1V21745.5z M6173.7,19234v2526.8
				c0,2398.3-1,2527.8-17.3,2532.9c-57.1,17.3-536.2,61.2-854.2,77.5c-225.3,11.2-941.9,11.2-1090.7-1
				c-804.3-65.2-1275.2-305.8-1503.5-768.5c-86.6-174.3-123.3-325.1-137.6-565.7c-31.6-508.6,249.7-984.6,725.8-1225.2
				c60.1-31.6,128.4-62.2,150.9-69.3c63.2-20.4,66.3-25.5,66.3-111.1v-78.5l-77.5-34.7c-222.2-97.8-374.1-257.9-503.6-533.1
				c-71.4-151.9-109.1-271.1-255.9-822.6c-130.5-489.2-218.1-800.1-247.7-883.7l-15.3-43.8h507.6c475,0,508.7,1,515.8,18.3
				c73.4,186.5,165.1,507.6,288.5,1006c133.5,537.2,189.6,671.7,348.6,831.7c94.8,94.8,162.1,137.6,280.3,177.4
				c131.5,43.8,247.7,56.1,558.6,56.1h282.4v-1044.8V19234h489.3H6173.7z"/>
			<path class="st0" d="M6173.7,21760.7V19234h-489.3h-489.3v1044.8v1044.8h-282.4c-310.9,0-427.1-12.2-558.6-56.1
				c-118.2-39.8-185.5-82.6-280.3-177.4c-159-160-215.1-294.6-348.6-831.7c-123.3-498.4-215.1-819.5-288.5-1006
				c-7.1-17.3-40.8-18.3-515.8-18.3h-507.6l15.3,43.8c29.6,83.6,117.2,394.5,247.7,883.7c146.8,551.4,184.5,670.7,255.9,822.6
				c129.5,275.2,281.3,435.2,503.6,533.1l77.5,34.7v78.5c0,85.6-3.1,90.7-66.3,111.1c-22.4,7.1-90.7,37.7-150.9,69.3
				c-476,240.5-757.4,716.5-725.8,1225.2c14.3,240.5,51,391.4,137.6,565.7c228.3,462.8,699.3,703.3,1503.5,768.5
				c148.8,12.2,865.4,12.2,1090.7,1c318-16.3,797.1-60.1,854.2-77.5C6172.6,24288.5,6173.7,24159.1,6173.7,21760.7z M5195.1,21972.8
				v836.8c0,722.7-2,836.8-15.3,840.9c-75.4,29.6-685,75.4-709.5,54c-2-2-42.8-6.1-90.7-10.2c-376.1-28.5-668.7-222.2-774.7-513.7
				c-39.8-108-53-188.6-52-322.1c0-247.7,78.5-442.4,241.6-598.3c112.1-108,226.3-171.2,396.5-222.2c154.9-45.9,237.5-54,630-59.1
				L5195.1,21972.8z"/>
			<path class="st0" d="M5195.1,22809.6v-836.8l-374.1,6.1c-392.5,5.1-475,13.2-630,59.1c-170.2,51-284.4,114.2-396.5,222.2
				c-163.1,155.9-241.6,350.6-241.6,598.3c-1,133.5,12.2,214,52,322.1c106,291.5,398.6,485.2,774.7,513.7
				c47.9,4.1,88.7,8.2,90.7,10.2c24.5,21.4,634-24.5,709.5-54C5193,23646.4,5195.1,23532.2,5195.1,22809.6z M4981,22186.8v642.1
				v642.1l-78.5,7.1c-144.7,12.2-435.3,15.3-512.7,5.1c-340.5-41.8-541.3-188.6-606.5-442.4c-21.4-81.5-21.4-276.2,0-356.7
				c51-196.7,193.7-344.5,406.7-422c140.7-49.9,236.5-63.2,529-69.3L4981,22186.8z"/>
		</g>
		<g>
		</g>
	</g>
	<g id="XMLID_2_">
		<g>
			<path class="st1" d="M66519.5,12379.4v-1492.2l-129.5-41.8c-606.5-194.7-1294.6-297.6-1888.9-282.3
				c-797.1,21.4-1408.8,202.8-1880.7,557.5c-121.3,90.7-338.4,299.7-430.2,412.8c-294.6,364.9-476,808.3-549.4,1345.4
				c-25.5,184.5-25.5,656.4-1,846c87.7,654.4,330.3,1171.1,746.2,1590.1c266.1,268.1,581,475,943.9,620.7
				c355.8,142.7,708.4,218.1,1186.5,254.8c111.1,8.2,619.8-4.1,759.4-19.4c314-33.6,559.6-83.6,784.9-158
				c200.8-66.3,308.9-117.2,301.7-140.7c-3.1-9.2-69.3-263-148.8-562.6c-78.5-299.7-145.8-553.5-149.8-562.6
				c-7.1-15.3-16.3-14.3-89.7,18.3c-353.7,154.9-736,228.3-1198.8,228.3c-94.8,0-217.1-5.1-272.2-11.2
				c-428.1-45.9-785.9-210-1025.5-467.8c-314-340.4-450.6-880.7-367-1457.6c105-723.7,566.8-1194.6,1274.2-1299.6
				c188.6-27.5,538.2-20.4,715.6,16.3l53,10.2v474v472.9h-412.8h-412.8v570.8v570.8h1095.8h1095.8V12379.4z M66313.6,12351.8
				l2,1316.9l-888.9-2l-889.9-3.1l-3.1-363.9l-2-364.9h412.8h412.8v-643.2v-642.1l-63.2-29.6c-122.3-56.1-316-82.6-614.7-82.6
				c-275.2,0-442.4,23.4-657.5,94.8c-615.7,201.8-1018.3,709.4-1116.2,1406.6c-23.4,165.1-29.6,364.9-16.3,528
				c54,680.9,370,1174.2,918.4,1436.2c284.4,135.6,581,194.7,977.6,194.7c382.3,0,706.4-46.9,1008.1-144.7
				c69.3-22.4,127.4-38.7,129.5-36.7c2,3.1,198.8,747.1,198.8,755.3c0,7.1-135.6,54-239.5,82.6c-213,60.1-522.9,109.1-805.3,128.4
				c-911.3,60.1-1708.4-147.8-2311.9-603.4c-107-80.5-342.5-315-422-421c-274.2-363.9-431.2-757.3-498.5-1253.7
				c-28.5-204.9-25.5-642.1,5.1-840.9c86.6-570.8,301.7-1018.3,657.5-1370.9c306.8-304.8,660.5-499.4,1123.3-615.6
				c719.7-181.4,1642.2-139.6,2532.1,115.2l147.8,41.8L66313.6,12351.8z"/>
			<path class="st1" d="M66315.7,13668.7l-2-1316.9l-3.1-1317.9l-147.8-41.8c-889.9-254.8-1812.4-296.6-2532.1-115.2
				c-462.8,116.2-816.5,310.9-1123.3,615.6c-355.8,352.7-570.8,800.1-657.5,1370.9c-30.6,198.8-33.6,636-5.1,840.9
				c67.3,496.4,224.3,889.8,498.5,1253.7c79.5,106,315,340.4,422,421c603.5,455.6,1400.6,663.5,2311.9,603.4
				c282.4-19.4,592.2-68.3,805.3-128.4c104-28.5,239.5-75.4,239.5-82.6c0-8.2-196.7-752.2-198.8-755.3c-2-2-60.1,14.3-129.5,36.7
				c-301.7,97.8-625.9,144.7-1008.1,144.7c-396.5,0-693.2-59.1-977.6-194.7c-548.4-262-864.4-755.3-918.4-1436.2
				c-13.2-163.1-7.1-362.9,16.3-528c97.9-697.2,500.5-1204.8,1116.2-1406.6c215.1-71.3,382.3-94.8,657.5-94.8
				c298.7,0,492.3,26.5,614.7,82.6l63.2,29.6v642.1v643.2h-412.8h-412.8l2,364.9l3.1,363.9l889.9,3.1L66315.7,13668.7z"/>
			<path class="st1" d="M61025.2,13378.3v-2767.3h-716.6H59592l-622.8,1124.3c-342.5,617.7-667.7,1205.8-722.7,1306.7
				c-104,193.7-429.1,840.9-503.6,1004c-24.5,53-48.9,101.9-54,107c-5.1,6.1-6.1-32.6-3.1-91.7c15.3-241.6,26.5-1235.4,26.5-2300.5
				v-1149.7h-657.5h-657.5v2767.3v2767.3h788h786.9l570.8-1006c314-552.4,608.6-1074.3,655.4-1158.9
				c114.2-209,357.8-694.1,460.8-918.4c45.9-100.9,88.7-187.5,93.8-193.7c6.1-6.1,7.1,5.1,4.1,30.6c-9.2,66.3-26.5,425-36.7,784.8
				c-5.1,185.5-10.2,814.4-10.2,1399.5v1062.1h657.5h657.5V13378.3z M60816.2,10819.9v2558.4v2558.4l-450.6,3.1l-451.6,2v-960.2
				c0-1361.7,20.4-1921.3,91.7-2607.3c11.2-104,20.4-194.7,20.4-201.8c0-10.2-24.5-12.2-103-10.2l-101.9,3.1l-69.3,168.2
				c-195.7,478-430.2,978.5-659.5,1409.7c-42.8,79.5-339.4,606.5-659.5,1172.2l-583.1,1026.4h-619.8c-486.2,0-620.8-3.1-623.8-12.2
				c-3.1-7.1-4.1-1159.9-3.1-2561.4l3.1-2548.2l451.6-3.1l450.6-2v1051.9c0,1227.2-17.3,2210.8-46.9,2735.7l-6.1,113.1l94.8,32.6
				c52,17.3,94.8,30.6,95.8,28.5c1-1,23.4-55,49.9-119.3c149.8-358.8,490.3-1065.1,719.7-1493.2c51-94.8,363.9-662.5,696.2-1261.9
				l603.5-1087.6l550.4,2L60816.2,10819.9z"/>
			<path class="st1" d="M60816.2,13378.3v-2558.4l-550.5-3.1l-550.4-2l-603.5,1087.6c-332.3,599.3-645.2,1167.1-696.2,1261.9
				c-229.4,428.1-569.8,1134.4-719.7,1493.2c-26.5,64.2-48.9,118.2-49.9,119.3c-1,2-43.8-11.2-95.8-28.5l-94.8-32.6l6.1-113.1
				c29.6-524.9,46.9-1508.5,46.9-2735.7v-1051.9l-450.6,2l-451.6,3.1l-3.1,2548.2c-1,1401.5,0,2554.3,3.1,2561.4
				c3.1,9.2,137.6,12.2,623.8,12.2h619.8l583.1-1026.4c320.1-565.7,616.7-1092.7,659.5-1172.2c229.4-431.2,463.8-931.6,659.5-1409.7
				l69.3-168.2l101.9-3.1c78.5-2,103,0,103,10.2c0,7.1-9.2,97.8-20.4,201.8c-71.4,686-91.7,1245.5-91.7,2607.3v960.2l451.6-2
				l450.6-3.1V13378.3z"/>
			<path class="st1" d="M55561.5,13378.3v-2767.3H54853h-708.5v2767.3v2767.3h708.5h708.5V13378.3z M55357.6,10814.8v2563.5v2563.5
				h-499.5c-390.4,0-501.5-3.1-504.6-12.2c-3.1-7.1-4.1-1159.9-3.1-2561.4l3.1-2548.2l502.5-3.1L55357.6,10814.8z"/>
			<path class="st1" d="M55357.6,13378.3v-2563.5l-501.5,2l-502.5,3.1l-3.1,2548.2c-1,1401.5,0,2554.3,3.1,2561.4
				c3.1,9.2,114.2,12.2,504.6,12.2h499.5V13378.3z"/>
			<path class="st1" d="M53703.2,10721l54-110.1h-732.9h-732.9l-40.8,79.5c-81.5,158-186.5,505.6-333.3,1097.8
				c-47.9,190.6-97.9,381.2-112.1,423c-90.7,265-224.3,409.7-430.2,463.8c-75.4,20.4-295.6,37.7-421,33.6l-96.8-3.1l-3.1-1046.8
				l-2-1047.8h-698.3h-698.3v2725.5V16061l107,17.3c274.2,42.8,699.3,81.5,1055,96.8c572.9,24.5,1054,7.1,1396.5-49.9
				c819.6-138.6,1303.8-549.4,1437.3-1219c34.7-170.2,39.8-439.3,12.2-600.4c-44.9-263-150.9-491.3-324.2-699.2
				c-113.1-135.6-274.2-271.1-420-352.7l-66.3-37.7l24.5-15.3c93.8-61.2,224.3-197.7,305.8-322.1c69.3-104,159-298.6,212-458.7
				c27.5-83.6,106-361.8,174.3-616.7C53578.8,11018.6,53619.6,10887.2,53703.2,10721z M53431,10819.9c0,2-23.4,81.5-52,175.3
				c-28.5,93.8-110.1,392.4-182.5,662.5c-165.1,616.7-183.5,677.8-240.6,820.5c-131.5,329.2-307.8,533.1-548.4,635l-67.3,28.5v83.6
				v83.6l64.2,23.4c370,134.5,693.2,460.7,811.4,820.5c49.9,153.9,66.3,279.3,59.1,462.7c-11.2,310.9-85.6,545.3-242.6,755.3
				c-247.7,332.3-654.4,515.8-1303.8,587.1c-178.4,19.4-815.5,27.5-1106,13.3c-308.9-14.3-763.5-53-917.4-79.5l-40.8-7.1
				l-3.1-2534.9l-2-2534.9h494.4h494.4v1050.9v1051.9l308.9-6.1c340.5-6.1,433.2-17.3,567.8-68.3c150.9-59.1,276.2-169.2,370-327.2
				c67.3-114.2,119.3-268.1,197.8-585.1c129.5-523.9,225.3-862.3,296.6-1046.8l26.5-69.3h507.6
				C53202.7,10814.8,53431,10816.8,53431,10819.9z"/>
			<path class="st1" d="M53379,10995.2c28.5-93.8,52-173.3,52-175.3c0-3.1-228.3-5.1-507.6-5.1h-507.6l-26.5,69.3
				c-71.4,184.5-167.2,522.9-296.6,1046.8c-78.5,317-130.5,470.9-197.8,585.1c-93.8,158-219.2,268.1-370,327.2
				c-134.6,51-227.3,62.2-567.8,68.3l-308.9,6.1v-1051.9v-1050.9h-494.4h-494.4l2,2534.9l3.1,2534.9l40.8,7.1
				c153.9,26.5,608.6,65.2,917.4,79.5c290.5,14.3,927.6,6.1,1106-13.3c649.3-71.3,1056.1-254.8,1303.8-587.1
				c157-210,231.4-444.4,242.6-755.3c7.1-183.5-9.2-308.8-59.1-462.7c-118.2-359.8-441.4-686-811.4-820.5l-64.2-23.4v-83.6v-83.6
				l67.3-28.5c240.6-101.9,416.9-305.8,548.4-635c57.1-142.7,75.4-203.9,240.6-820.5C53268.9,11387.6,53350.5,11089,53379,10995.2z
				 M52260.8,14214.1c32.6,115.2,32.6,357.8,0,478c-89.7,326.2-334.3,520.8-736,582c-88.7,14.3-400.6,18.3-540.3,8.2
				c-63.2-4.1-194.7-21.4-272.2-34.7l-64.2-11.2v-830.7V13575l400.6,5.1c364.9,4.1,408.8,6.1,501.5,26.5
				C51933.6,13691.2,52169,13893,52260.8,14214.1z"/>
			<path class="st1" d="M52260.8,14692.1c32.6-120.3,32.6-362.9,0-478c-91.7-321.1-327.2-522.9-710.5-607.5
				c-92.8-20.4-136.6-22.4-501.5-26.5l-400.6-5.1v830.7v830.7l64.2,11.2c77.5,13.2,209,30.6,272.2,34.7
				c139.7,10.2,451.6,6.1,540.3-8.2C51926.4,15212.9,52171.1,15018.3,52260.8,14692.1z M51904,14004.1
				c127.4,119.3,188.6,287.4,178.4,486.2c-16.3,300.7-169.2,479.1-482.2,561.6c-91.7,23.4-121.3,26.5-330.3,28.5
				c-126.4,2-242.6,1-259.9-1c-16.3-2-59.1-7.1-93.8-10.2l-64.2-6.1V14422v-641.1h242.6c274.2,0,391.4,13.2,532.1,60.1
				C51747,13881.8,51820.4,13924.6,51904,14004.1z"/>
			<path class="st1" d="M48833.7,11207.2v-596.3h-1804.3h-1804.3v2767.3v2767.3h1748.2h1748.2v-596.3V14953h-1039.7h-1039.7v-453.6
				v-453.6h983.7h983.7v-591.2v-591.2h-983.7h-983.7v-530v-530h1095.8h1095.8V11207.2z M48629.8,10814.8v392.4v392.4H47534h-1095.8
				v733.9v733.9l981.6,2l980.6,3.1l3.1,385.3l2,384.3h-983.7h-983.7v657.4v657.4H47478h1039.7v392.4v392.4h-1539.2
				c-1222.2,0-1541.3-3.1-1544.3-12.2c-3.1-7.1-4.1-1159.9-3.1-2561.4l3.1-2548.2l1598.3-3.1L48629.8,10814.8z"/>
			<path class="st1" d="M48629.8,11207.2v-392.4l-1597.3,2l-1598.3,3.1l-3.1,2548.2c-1,1401.5,0,2554.3,3.1,2561.4
				c3.1,9.2,322.1,12.2,1544.3,12.2h1539.2v-392.4v-392.4H47478h-1039.7v-657.4V13842h983.7h983.7l-2-384.3l-3.1-385.3l-980.6-3.1
				l-981.6-2v-733.9v-733.9H47534h1095.8V11207.2z"/>
			<path class="st1" d="M44603.4,11207.2v-596.3h-1804.3h-1804.3v2767.3v2767.3h1748.2h1748.2v-596.3V14953h-1039.7h-1039.7v-453.6
				v-453.6h983.7h983.7v-591.2v-591.2h-983.7h-983.7v-530v-530h1095.8h1095.8V11207.2z M44399.5,10814.8v392.4v392.4h-1095.8
				h-1095.8v733.9v733.9l981.6,2l980.6,3.1l3.1,385.3l2,384.3h-983.7h-983.7v657.4v657.4h1039.7h1039.7v392.4v392.4h-1539.2
				c-1222.2,0-1541.3-3.1-1544.3-12.2c-3.1-7.1-4.1-1159.9-3.1-2561.4l3.1-2548.2l1598.3-3.1L44399.5,10814.8z"/>
			<path class="st1" d="M44399.5,11207.2v-392.4l-1597.3,2l-1598.3,3.1l-3.1,2548.2c-1,1401.5,0,2554.3,3.1,2561.4
				c3.1,9.2,322.1,12.2,1544.3,12.2h1539.2v-392.4v-392.4h-1039.7h-1039.7v-657.4V13842h983.7h983.7l-2-384.3l-3.1-385.3l-980.6-3.1
				l-981.6-2v-733.9v-733.9h1095.8h1095.8V11207.2z"/>
			<path class="st1" d="M40159,13378.3v-2767.3h-716.6h-716.6l-622.8,1124.3c-342.5,617.7-667.7,1205.8-722.7,1306.7
				c-104,194.7-429.1,840.9-503.6,1004c-24.5,53-48.9,101.9-54,107c-5.1,6.1-6.1-32.6-3.1-91.7c15.3-241.6,26.5-1235.4,26.5-2300.5
				v-1149.7h-657.5h-657.5v2767.3v2767.3h788h786.9l570.8-1006c314-552.4,608.6-1074.3,655.4-1158.9
				c114.2-209,357.8-694.1,460.8-918.4c45.9-100.9,88.7-187.5,93.8-193.7c6.1-6.1,7.1,5.1,4.1,30.6c-9.2,66.3-26.5,425-36.7,784.8
				c-5.1,185.5-10.2,814.4-10.2,1399.5v1062.1h657.5h657.5V13378.3z M39950,10819.9v2558.4v2558.4l-450.6,3.1l-451.6,2v-950
				c0-1360.7,20.4-1933.6,91.7-2617.5c11.2-104,20.4-194.7,20.4-201.8c0-10.2-24.5-12.2-103-10.2l-101.9,3.1l-69.3,168.2
				c-195.7,478-430.2,978.5-659.5,1409.7c-42.8,79.5-339.4,606.5-659.5,1172.2l-583.1,1026.4h-619.8c-486.2,0-620.8-3.1-623.8-12.2
				c-3.1-7.1-4.1-1159.9-3.1-2561.4l3.1-2548.2l451.6-3.1l450.6-2v1051.9c0,1227.2-17.3,2210.8-46.9,2735.7l-6.1,113.1l94.8,32.6
				c52,17.3,94.8,30.6,95.8,28.5c1-1,23.4-55,49.9-119.3c149.8-358.8,490.3-1065.1,719.7-1493.2c51-94.8,363.9-662.5,696.2-1261.9
				l603.5-1087.6l550.5,2L39950,10819.9z"/>
			<path class="st1" d="M39950,13378.3v-2558.4l-550.5-3.1l-550.5-2l-603.5,1087.6c-332.3,599.3-645.3,1167.1-696.2,1261.9
				c-229.4,428.1-569.8,1134.4-719.7,1493.2c-26.5,64.2-48.9,118.2-49.9,119.3c-1,2-43.8-11.2-95.8-28.5l-94.8-32.6l6.1-113.1
				c29.6-524.9,46.9-1508.5,46.9-2735.7v-1051.9l-450.6,2l-451.6,3.1l-3.1,2548.2c-1,1401.5,0,2554.3,3.1,2561.4
				c3.1,9.2,137.6,12.2,623.8,12.2h619.8l583.1-1026.4c320.1-565.7,616.7-1092.7,659.5-1172.2c229.4-431.2,463.8-931.6,659.5-1409.7
				l69.3-168.2l101.9-3.1c78.5-2,103,0,103,10.2c0,7.1-9.2,97.8-20.4,201.8c-71.4,683.9-91.7,1256.8-91.7,2617.5v950l451.6-2
				l450.6-3.1V13378.3z"/>
			<path class="st1" d="M34695.2,13378.3v-2767.3h-708.4h-708.5v2767.3v2767.3h708.5h708.4V13378.3z M34491.4,10814.8v2563.5v2563.5
				h-499.5c-390.4,0-501.5-3.1-504.6-12.2c-3.1-7.1-4.1-1159.9-3.1-2561.4l3.1-2548.2l502.5-3.1L34491.4,10814.8z"/>
			<path class="st1" d="M34491.4,13378.3v-2563.5l-501.5,2l-502.5,3.1l-3.1,2548.2c-1,1401.5,0,2554.3,3.1,2561.4
				c3.1,9.2,114.2,12.2,504.6,12.2h499.5V13378.3z"/>
			<path class="st1" d="M32544.4,12379.4v-1492.2l-129.5-41.8c-606.5-194.7-1294.6-297.6-1888.9-282.3
				c-607.5,16.3-1072.4,117.2-1493.4,323.1c-272.2,133.5-453.6,266-673.8,490.3c-385.3,394.5-607.5,876.6-693.2,1502.4
				c-25.5,183.5-25.5,655.4-1,846c86.6,652.3,330.3,1172.2,746.2,1590.1c266.1,268.1,581,475,943.9,620.7
				c355.8,142.7,708.5,218.1,1186.5,254.8c111.1,8.2,619.8-4.1,759.4-19.4c314-33.6,559.6-83.6,784.9-158
				c200.8-66.3,308.9-117.2,301.7-140.7c-3.1-9.2-69.3-263-148.8-562.6c-78.5-299.7-145.8-553.5-149.8-562.6
				c-7.1-15.3-16.3-14.3-89.7,18.3c-353.7,154.9-736,228.3-1198.8,228.3c-94.8,0-217.1-5.1-272.2-11.2
				c-670.7-72.4-1134.5-416.9-1322.1-981.6c-152.9-459.7-117.2-1056,88.7-1468.8c215.1-431.2,599.4-698.2,1115.2-774.6
				c188.6-27.5,538.2-20.4,715.6,16.3l53,10.2v474v472.9h-412.8h-412.8v570.8v570.8h1095.8h1095.8V12379.4z M32338.5,12351.8
				l2,1316.9l-888.9-2l-889.9-3.1l-3.1-363.9l-2-364.9h412.8h412.8v-643.2v-642.1l-63.2-29.6c-122.3-56.1-316-82.6-614.7-82.6
				c-275.2,0-442.4,23.4-657.5,94.8c-615.7,201.8-1018.3,710.4-1116.2,1406.6c-36.7,262-28.5,555.5,21.4,803.2
				c106,528,398.6,920.4,855.2,1146.7c299.7,148.8,591.2,209,1003,209c382.3,0,706.4-46.9,1008.1-144.7
				c69.3-22.4,127.4-38.7,129.5-36.7c2,3.1,198.8,747.1,198.8,755.3c0,7.1-135.6,54-239.5,82.6c-213,60.1-522.9,109.1-805.3,128.4
				c-692.1,45.9-1338.4-67.3-1865.4-326.2c-705.4-347.6-1173.3-956.1-1328.2-1727.7c-48.9-239.5-58.1-349.6-57.1-647.2
				c1-299.7,17.3-449.5,76.5-691.1c216.1-882.7,823.6-1485.1,1727.8-1713.4c719.7-181.4,1642.2-139.6,2532.1,115.2l147.8,41.8
				L32338.5,12351.8z"/>
			<path class="st1" d="M32340.5,13668.7l-2-1316.9l-3.1-1317.9l-147.8-41.8c-889.9-254.8-1812.4-296.6-2532.1-115.2
				c-904.2,228.3-1511.7,830.7-1727.8,1713.4c-59.1,241.6-75.4,391.4-76.5,691.1c-1,297.6,8.2,407.7,57.1,647.2
				c154.9,771.6,622.8,1380.1,1328.2,1727.7c527,258.9,1173.3,372,1865.4,326.2c282.4-19.4,592.2-68.3,805.3-128.4
				c104-28.5,239.5-75.4,239.5-82.6c0-8.2-196.7-752.2-198.8-755.3c-2-2-60.1,14.3-129.5,36.7c-301.7,97.8-625.9,144.7-1008.1,144.7
				c-411.8,0-703.4-60.1-1003-209c-456.7-226.3-749.2-618.7-855.2-1146.7c-49.9-247.7-58.1-541.2-21.4-803.2
				c97.9-696.2,500.5-1204.8,1116.2-1406.6c215.1-71.3,382.3-94.8,657.5-94.8c298.7,0,492.3,26.5,614.7,82.6l63.2,29.6v642.1v643.2
				h-412.8h-412.8l2,364.9l3.1,363.9l889.9,3.1L32340.5,13668.7z"/>
			<path class="st1" d="M27050.1,13378.3v-2767.3h-716.6h-716.6l-622.8,1124.3c-342.5,617.7-667.7,1205.8-722.7,1306.7
				c-104,194.7-429.1,840.9-503.6,1004c-24.5,53-48.9,101.9-54,107c-5.1,6.1-6.1-32.6-3.1-91.7c15.3-241.6,26.5-1235.4,26.5-2300.5
				v-1149.7h-657.5h-657.5v2767.3v2767.3h788h786.9l570.8-1006c314-552.4,608.6-1074.3,655.4-1158.9
				c114.2-209,357.8-694.1,460.7-918.4c45.9-100.9,88.7-187.5,93.8-193.7c6.1-6.1,7.1,5.1,4.1,30.6c-9.2,66.3-26.5,425-36.7,784.8
				c-5.1,185.5-10.2,814.4-10.2,1399.5v1062.1h657.5h657.5V13378.3z M26841.1,10819.9v2558.4v2558.4l-450.6,3.1l-451.6,2v-950
				c0-1360.7,20.4-1933.6,91.7-2617.5c11.2-104,20.4-194.7,20.4-201.8c0-10.2-24.5-12.2-103-10.2l-101.9,3.1l-79.5,193.7
				c-228.3,553.5-509.7,1139.5-773.7,1611.5c-108.1,192.6-144.7,256.9-741.1,1307.7l-377.2,663.5H23255
				c-486.2,0-620.8-3.1-623.8-12.2c-3.1-7.1-4.1-1159.9-3.1-2561.4l3.1-2548.2l451.6-3.1l450.6-2v1057
				c0,1224.1-17.3,2204.7-46.9,2730.6l-6.1,113.1l94.8,32.6c52,17.3,94.8,30.6,95.8,28.5c1-1,23.4-55,49.9-119.3
				c149.8-358.8,490.3-1065.1,719.7-1493.2c51-94.8,363.9-662.5,696.2-1261.9l603.5-1087.6l550.5,2L26841.1,10819.9z"/>
			<path class="st1" d="M26841.1,13378.3v-2558.4l-550.5-3.1l-550.5-2l-603.5,1087.6c-332.3,599.3-645.3,1167.1-696.2,1261.9
				c-229.4,428.1-569.8,1134.4-719.7,1493.2c-26.5,64.2-48.9,118.2-49.9,119.3c-1,2-43.8-11.2-95.8-28.5l-94.8-32.6l6.1-113.1
				c29.6-525.9,46.9-1506.5,46.9-2730.6v-1057l-450.6,2l-451.6,3.1l-3.1,2548.2c-1,1401.5,0,2554.3,3.1,2561.4
				c3.1,9.2,137.6,12.2,623.8,12.2h619.8l377.2-663.5c596.3-1050.9,633-1115.1,741.1-1307.7c264-471.9,545.4-1058,773.7-1611.5
				l79.5-193.7l101.9-3.1c78.5-2,103,0,103,10.2c0,7.1-9.2,97.8-20.4,201.8c-71.4,683.9-91.7,1256.8-91.7,2617.5v950l451.6-2
				l450.6-3.1V13378.3z"/>
			<path class="st1" d="M21800.4,11207.2v-596.3h-1804.3h-1804.3v2767.3v2767.3h1748.2h1748.2v-596.3V14953h-1039.7h-1039.7v-453.6
				v-453.6h983.7h983.7v-591.2v-591.2h-983.7h-983.7v-530v-530h1095.8h1095.8V11207.2z M21596.5,10814.8v392.4v392.4h-1095.8
				h-1095.8v733.9v733.9l981.6,2l980.6,3.1l3.1,385.3l2,384.3h-983.7h-983.7v657.4v657.4h1039.7h1039.7v392.4v392.4h-1539.2
				c-1222.2,0-1541.3-3.1-1544.3-12.2c-3.1-7.1-4.1-1159.9-3.1-2561.4l3.1-2548.2l1598.3-3.1L21596.5,10814.8z"/>
			<path class="st1" d="M21596.5,11207.2v-392.4l-1597.3,2l-1598.3,3.1l-3.1,2548.2c-1,1401.5,0,2554.3,3.1,2561.4
				c3.1,9.2,322.1,12.2,1544.3,12.2h1539.2v-392.4v-392.4h-1039.7h-1039.7v-657.4V13842h983.7h983.7l-2-384.3l-3.1-385.3l-980.6-3.1
				l-981.6-2v-733.9v-733.9h1095.8h1095.8V11207.2z"/>
		</g>
		<g>
		</g>
	</g>
</g>
</svg>
